<svg width="43" height="44" viewBox="0 0 43 44" fill="none" xmlns="http://www.w3.org/2000/svg">
<rect x="0.707107" y="22" width="29" height="29" transform="rotate(-45 0.707107 22)" fill="#0A192F"/>
<rect x="0.707107" y="22" width="29" height="29" transform="rotate(-45 0.707107 22)" stroke="#64FFDA"/>
<path d="M19.5849 26.6291L16.6204 27.4312L17.7302 13.6162L21.2953 12.6516L29.2132 24.024L26.2486 24.8261L20.3425 15.9978L20.2402 16.0254L19.5849 26.6291ZM18.2531 22.7661L19.1526 22.5227L19.3869 23.3885L18.4873 23.6319L18.2531 22.7661Z" fill="#CCD6F6"/>
<path d="M16.6752 30.2616L17.0543 28.8467L24.782 22.4561L19.1586 20.9493L19.6852 18.984L28.296 21.2912L27.9169 22.7061L20.1837 29.0952L25.8126 30.6035L25.286 32.5688L16.6752 30.2616Z" fill="#64FFDA"/>
</svg>
